<svg width="272" height="188" viewBox="0 0 272 188" fill="none" xmlns="http://www.w3.org/2000/svg">
<path d="M0 92.9766C2.80536e-05 63.2001 5.13237 33.423 15.3965 3.64648C40.4863 2.43114 62.1551 1.51882 80.4023 0.911133C97.5091 0.303455 115.757 4.36296e-06 135.145 0C153.392 2.70667e-06 172.21 0.303454 191.598 0.911133C209.845 1.51882 230.944 2.43113 254.894 3.64648C259.455 18.8385 263.447 34.0307 266.868 49.2227C270.29 64.4146 272.001 79.6069 272.001 94.7988C272.001 109.383 270.29 123.968 266.868 138.553C263.447 153.137 259.455 168.026 254.894 183.218C232.084 185.041 211.556 186.257 193.309 186.864C173.921 187.472 155.103 187.775 136.855 187.775C119.749 187.775 101.501 187.472 82.1133 186.864C62.7255 186.257 40.4864 185.041 15.3965 183.218C5.13238 152.834 4.90961e-05 122.753 0 92.9766ZM22.1064 124.856C22.1064 142.097 22.18 143.022 23.6533 144.222C27.094 147.023 35.1053 151.067 40.1787 152.563C46.8009 154.517 57.7166 154.631 65.0771 152.822C75.0402 150.375 85.3788 143.599 92.291 134.984L94.3242 132.451L94.3965 154.641L143.039 154.246C197.888 153.802 197.848 153.805 209.369 148.449C223.973 141.66 236.49 126.93 241.419 110.733C243.894 102.599 243.899 86.7399 241.431 78.0527C235.141 55.9173 218.647 40.1278 196.759 35.2891C191.413 34.1076 185.842 33.9971 131.695 33.9971C76.3902 33.9971 72.1757 34.0851 67.8975 35.3281C54.7254 39.1541 45.8952 46.9431 42.4883 57.7432C40.8833 62.8301 41.0018 72.3242 42.7344 77.5488C43.5057 79.8733 48.1174 88.1285 52.9824 95.8926C57.8474 103.657 62.2338 111.117 62.7314 112.47C64.7556 117.982 63.0402 124.272 58.9512 126.332C56.1549 127.741 49.6496 126.786 43.8887 124.121C39.9443 122.296 36.6484 119.838 30.6191 114.223C26.2106 110.116 22.4929 106.756 22.3525 106.752C22.2341 106.752 22.1344 112.989 22.1113 121.22L22.1064 124.856ZM181.299 94.1484C181.299 73.7032 181.577 61.7981 182.06 61.5117C183.51 60.6676 192.102 62.7942 195.544 64.8486C199.708 67.3338 203.335 71.9742 205.842 78.0225C208.37 84.1229 209.04 99.6229 207.08 106.708C204.744 115.154 200.935 120.818 195.617 123.752C192.198 125.638 184.282 127.42 182.377 126.731C181.476 126.406 181.299 121.087 181.299 94.1484ZM153.613 106.752V127.021H122.852V106.752L153.613 106.752ZM123.023 70.374L123.236 60.0586L153.613 59.666V80.6904L122.81 80.6904L123.023 70.374ZM75.4063 73.4512C74.1773 70.3579 74.7241 65.7597 76.6113 63.3164C78.5216 60.8435 82.9676 59.5957 88.9785 59.8477L94.0127 60.0586L94.1865 81.7764C94.3449 101.395 94.2484 103.354 93.1855 102.046C90.8275 99.1427 76.3853 75.9151 75.4063 73.4512Z" fill="#4FFFB0"/>
</svg>
