<svg width="188" height="215" viewBox="0 0 188 215" fill="none" xmlns="http://www.w3.org/2000/svg">
<path d="M81.0234 149.995C74.2669 149.756 67.5105 149.315 60.7539 148.67V122.852H81.0234V149.995ZM117.401 123.023L127.717 123.236L127.913 138.425L128.043 148.529C121.057 149.198 114.071 149.668 107.085 149.937V122.81L117.401 123.023ZM94.7998 0C124.576 3.12266e-05 154.353 2.83464 184.13 8.50293C185.345 22.3583 186.257 34.3246 186.864 44.4014C187.472 53.8485 187.775 63.9261 187.775 74.6328C187.775 84.7097 187.472 95.1019 186.864 105.809C186.257 115.886 185.345 127.538 184.13 140.764C174.011 142.442 163.891 143.975 153.772 145.373C153.775 141.196 153.778 136.649 153.778 131.695C153.778 76.3902 153.69 72.1757 152.447 67.8975C148.621 54.7254 140.832 45.8952 130.032 42.4883C124.945 40.8833 115.451 41.0018 110.227 42.7344C107.902 43.5057 99.6469 48.1174 91.8828 52.9824C84.1188 57.8474 76.6588 62.2338 75.3057 62.7314C69.7937 64.7556 63.5029 63.0402 61.4434 58.9512C60.0346 56.1549 60.9895 49.6496 63.6543 43.8887C65.4793 39.9443 67.9373 36.6484 73.5527 30.6191C77.6592 26.2106 81.0194 22.4929 81.0234 22.3525C81.0234 22.2172 72.8763 22.1064 62.918 22.1064C45.6784 22.1064 44.7531 22.1801 43.5537 23.6533C40.7529 27.094 36.7083 35.1053 35.2119 40.1787C33.2588 46.8009 33.1449 57.7166 34.9531 65.0771C37.4 75.0402 44.1763 85.3788 52.791 92.291L55.3242 94.3242L33.1348 94.3965L33.5293 143.039C33.5353 143.782 33.541 144.515 33.5469 145.238C24.01 143.877 14.3466 142.387 4.55762 140.764C2.73458 128.168 1.5198 116.83 0.912109 106.753C0.304442 96.0463 6.07406e-06 85.6539 0 75.5771C9.25506e-06 66.1302 0.304446 56.0532 0.912109 45.3467C1.51979 34.6401 2.73461 22.3585 4.55762 8.50293C34.9419 2.83463 65.0232 0 94.7998 0ZM114.324 75.4062C117.418 74.1773 122.016 74.7241 124.459 76.6113C126.932 78.5216 128.18 82.9676 127.928 88.9785L127.717 94.0127L105.999 94.1865C86.3808 94.3449 84.4214 94.2484 85.7295 93.1855C88.6328 90.8275 111.86 76.3852 114.324 75.4062Z" fill="#4FFFB0"/>
<mask id="path-2-outside-1_54_174" maskUnits="userSpaceOnUse" x="29" y="163" width="129" height="41" fill="black">
<rect fill="white" x="29" y="163" width="129" height="41"/>
<path d="M36.0414 196.544C35.8494 196.032 35.7107 195.424 35.6254 194.72C35.54 194.016 35.4867 193.291 35.4654 192.544C35.444 191.797 35.4654 191.104 35.5294 190.464C35.6147 189.803 35.7214 189.28 35.8494 188.896C36.1054 188.811 36.3934 188.64 36.7134 188.384C37.0547 188.107 37.3427 187.627 37.5774 186.944C37.8334 186.261 37.9614 185.259 37.9614 183.936C37.9614 182.656 37.8547 181.664 37.6414 180.96C37.4494 180.256 37.1934 179.755 36.8734 179.456C36.5534 179.157 36.212 178.987 35.8494 178.944C35.6574 178.496 35.5187 177.931 35.4334 177.248C35.348 176.544 35.3054 175.819 35.3054 175.072C35.3267 174.325 35.3907 173.611 35.4974 172.928C35.604 172.224 35.764 171.648 35.9774 171.2C36.4894 171.243 37.1507 171.296 37.9614 171.36C38.772 171.403 39.636 171.456 40.5534 171.52C41.492 171.563 42.3987 171.605 43.2734 171.648C44.148 171.669 44.916 171.68 45.5774 171.68C46.5374 171.68 47.5294 171.659 48.5534 171.616C49.5987 171.552 50.5587 171.477 51.4334 171.392C52.3294 171.307 53.044 171.243 53.5774 171.2C53.7694 171.648 53.8974 172.245 53.9614 172.992C54.0467 173.739 54.0787 174.528 54.0574 175.36C54.036 176.171 53.9827 176.949 53.8974 177.696C53.812 178.443 53.684 179.04 53.5134 179.488C53.0014 179.488 52.6174 179.691 52.3614 180.096C52.1267 180.48 51.9667 180.992 51.8814 181.632C51.8174 182.272 51.7854 182.955 51.7854 183.68V187.008H52.7134C52.6707 186.005 52.6707 185.035 52.7134 184.096C52.7774 183.157 52.852 182.485 52.9374 182.08C53.9187 181.909 55.028 181.803 56.2654 181.76C57.524 181.696 58.7827 181.696 60.0414 181.76C61.3214 181.803 62.4627 181.909 63.4654 182.08C63.5934 182.635 63.6894 183.424 63.7534 184.448C63.8387 185.451 63.8814 186.571 63.8814 187.808C63.9027 189.024 63.9027 190.229 63.8814 191.424C63.86 192.597 63.8067 193.643 63.7214 194.56C63.6574 195.477 63.572 196.139 63.4654 196.544C61.332 196.501 59.1027 196.405 56.7774 196.256C54.4734 196.128 52.116 196.064 49.7054 196.064C48.5107 196.064 47.22 196.075 45.8334 196.096C44.468 196.139 43.124 196.181 41.8014 196.224C40.4787 196.288 39.3054 196.341 38.2814 196.384C37.2574 196.448 36.5107 196.501 36.0414 196.544ZM73.5831 197.088C71.0231 197.088 68.9965 196.757 67.5031 196.096C66.0311 195.435 64.9751 194.571 64.3351 193.504C63.6951 192.437 63.3751 191.285 63.3751 190.048C63.3751 188.171 64.0365 186.645 65.3591 185.472C66.6818 184.299 68.7938 183.701 71.6951 183.68L78.4791 183.616V181.92H76.7191V182.784C74.5431 182.869 72.3991 182.955 70.2871 183.04C68.1751 183.125 66.0738 183.093 63.9831 182.944C63.4498 179.616 63.5031 176.395 64.1431 173.28C64.7618 173.28 65.5085 173.291 66.3831 173.312C67.2791 173.333 68.2178 173.365 69.1991 173.408C70.2018 173.429 71.1831 173.451 72.1431 173.472C73.1031 173.493 73.9565 173.515 74.7031 173.536C74.4258 174.176 74.2658 174.816 74.2231 175.456C74.2018 176.096 74.2978 176.715 74.5111 177.312C74.6178 175.541 75.2898 174.315 76.5271 173.632C77.7645 172.949 79.5138 172.608 81.7751 172.608C84.6978 172.608 86.9378 173.035 88.4951 173.888C90.0525 174.72 91.0871 175.968 91.5991 177.632C91.8551 178.421 91.9618 179.275 91.9191 180.192C91.8978 181.088 91.8338 181.963 91.7271 182.816C91.6205 183.669 91.5671 184.437 91.5671 185.12C91.5671 186.421 91.7698 187.349 92.1751 187.904C92.6018 188.437 93.0498 188.789 93.5191 188.96C93.7111 189.579 93.8178 190.357 93.8391 191.296C93.8818 192.235 93.8605 193.173 93.7751 194.112C93.6898 195.051 93.5405 195.861 93.3271 196.544C92.3885 196.757 91.4071 196.896 90.3831 196.96C89.3591 197.045 88.5271 197.088 87.8871 197.088C86.2658 197.088 84.9965 196.896 84.0791 196.512C83.1618 196.128 82.7031 195.424 82.7031 194.4C82.7031 194.037 82.7671 193.653 82.8951 193.248C83.0445 192.843 83.2151 192.405 83.4071 191.936L82.5751 191.52C82.1911 192.459 81.6578 193.355 80.9751 194.208C80.3138 195.061 79.3858 195.755 78.1911 196.288C77.0178 196.821 75.4818 197.088 73.5831 197.088ZM76.7191 187.712H78.4791V185.696H76.7191V187.712ZM110.825 197.088C108.734 197.088 107.006 196.917 105.641 196.576C104.297 196.235 103.209 195.744 102.377 195.104C101.566 194.443 100.905 193.653 100.393 192.736L99.5606 193.152C99.71 193.472 99.8273 193.781 99.9126 194.08C99.998 194.379 100.041 194.667 100.041 194.944C100.041 195.435 99.8593 195.819 99.4966 196.096C99.1553 196.373 98.7286 196.565 98.2166 196.672C97.7046 196.779 97.1926 196.832 96.6806 196.832C95.9126 196.832 95.0593 196.736 94.1206 196.544C93.9073 195.968 93.7473 195.232 93.6406 194.336C93.5553 193.419 93.534 192.48 93.5766 191.52C93.6193 190.539 93.726 189.685 93.8966 188.96C94.2166 188.853 94.526 188.651 94.8246 188.352C95.1233 188.053 95.3686 187.531 95.5606 186.784C95.7526 186.016 95.8486 184.928 95.8486 183.52C95.8486 182.325 95.774 181.376 95.6246 180.672C95.4966 179.947 95.326 179.392 95.1126 179.008C94.9206 178.603 94.7073 178.315 94.4726 178.144C94.2593 177.973 94.0673 177.845 93.8966 177.76C93.6833 177.056 93.534 176.245 93.4486 175.328C93.3846 174.411 93.3953 173.504 93.4806 172.608C93.5873 171.691 93.7686 170.923 94.0246 170.304C95.0913 170.432 96.286 170.539 97.6086 170.624C98.9313 170.688 100.403 170.72 102.025 170.72C103.603 170.72 105.086 170.677 106.473 170.592C107.859 170.485 109.001 170.389 109.897 170.304C110.067 170.731 110.185 171.253 110.249 171.872C110.334 172.491 110.377 173.067 110.377 173.6C109.715 173.963 109.107 174.389 108.553 174.88C107.998 175.349 107.486 175.84 107.017 176.352L107.721 176.96C108.723 175.893 109.865 174.976 111.145 174.208C112.425 173.44 113.79 173.056 115.241 173.056C118.27 173.056 120.574 174.091 122.153 176.16C123.753 178.229 124.553 181.109 124.553 184.8C124.553 187.381 124.073 189.589 123.113 191.424C122.174 193.259 120.691 194.667 118.665 195.648C116.638 196.608 114.025 197.088 110.825 197.088ZM108.841 186.368H110.569V183.392H108.841V186.368ZM143.023 197.024C140.293 197.024 138.202 196.683 136.751 196C135.322 195.317 134.586 194.112 134.543 192.384C134.287 193.109 134.202 193.792 134.287 194.432C134.394 195.051 134.554 195.669 134.767 196.288C132.655 196.352 130.735 196.416 129.007 196.48C127.279 196.544 125.85 196.565 124.719 196.544C124.442 194.965 124.282 193.397 124.239 191.84C124.218 190.283 124.335 188.64 124.591 186.912C126.149 186.912 127.642 187.104 129.071 187.488C130.522 187.851 131.802 188.437 132.911 189.248L133.519 188.512C132.901 188.064 132.25 187.701 131.567 187.424C130.906 187.125 130.202 186.859 129.455 186.624C128.453 186.283 127.535 185.835 126.703 185.28C125.893 184.725 125.253 184.021 124.783 183.168C124.314 182.315 124.079 181.269 124.079 180.032C124.079 178.709 124.378 177.493 124.975 176.384C125.594 175.275 126.565 174.389 127.887 173.728C129.21 173.045 130.917 172.704 133.007 172.704C135.717 172.704 137.797 173.067 139.247 173.792C140.719 174.496 141.477 175.765 141.519 177.6C141.797 176.853 141.893 176.16 141.807 175.52C141.743 174.859 141.583 174.165 141.327 173.44C142.842 173.419 144.143 173.397 145.231 173.376C146.341 173.333 147.343 173.301 148.239 173.28C149.135 173.237 149.999 173.216 150.831 173.216C151.13 174.624 151.29 176.149 151.311 177.792C151.333 179.435 151.226 181.109 150.991 182.816C149.434 182.795 148.122 182.635 147.055 182.336C145.989 182.037 144.954 181.579 143.951 180.96L143.407 181.728C143.941 182.069 144.431 182.347 144.879 182.56C145.327 182.752 145.733 182.923 146.095 183.072C147.397 183.605 148.463 184.181 149.295 184.8C150.127 185.397 150.746 186.133 151.151 187.008C151.557 187.861 151.759 188.928 151.759 190.208C151.759 191.765 151.482 193.003 150.927 193.92C150.373 194.837 149.647 195.52 148.751 195.968C147.877 196.395 146.927 196.672 145.903 196.8C144.901 196.949 143.941 197.024 143.023 197.024Z"/>
</mask>
<path d="M36.0414 196.544L30.4234 198.651L32.0294 202.933L36.5846 202.519L36.0414 196.544ZM35.6254 194.72L29.669 195.442L35.6254 194.72ZM35.4654 192.544L29.4678 192.715L35.4654 192.544ZM35.5294 190.464L29.5787 189.696L29.5677 189.781L29.5592 189.867L35.5294 190.464ZM35.8494 188.896L33.952 183.204L31.106 184.153L30.1573 186.999L35.8494 188.896ZM36.7134 188.384L40.4615 193.069L40.4793 193.055L40.4969 193.041L36.7134 188.384ZM37.5774 186.944L31.9594 184.837L31.9302 184.915L31.9033 184.994L37.5774 186.944ZM37.6414 180.96L31.8528 182.539L31.8749 182.62L31.8992 182.7L37.6414 180.96ZM36.8734 179.456L32.7795 183.842L36.8734 179.456ZM35.8494 178.944L30.3345 181.308L31.7016 184.497L35.1483 184.903L35.8494 178.944ZM35.4334 177.248L29.477 177.97L29.4783 177.981L29.4797 177.992L35.4334 177.248ZM35.3054 175.072L29.3078 174.901L29.3054 174.986V175.072H35.3054ZM35.4974 172.928L41.4254 173.854L41.4276 173.841L41.4297 173.827L35.4974 172.928ZM35.9774 171.2L36.4756 165.221L32.3431 164.876L30.5602 168.62L35.9774 171.2ZM37.9614 171.36L37.4892 177.341L37.5675 177.348L37.646 177.352L37.9614 171.36ZM40.5534 171.52L40.1358 177.505L40.2083 177.511L40.2809 177.514L40.5534 171.52ZM43.2734 171.648L42.981 177.641L43.054 177.644L43.1271 177.646L43.2734 171.648ZM48.5534 171.616L48.8032 177.611L48.8616 177.608L48.92 177.605L48.5534 171.616ZM51.4334 171.392L50.8645 165.419L50.8508 165.42L51.4334 171.392ZM53.5774 171.2L59.0923 168.836L57.3947 164.875L53.0989 165.219L53.5774 171.2ZM53.9614 172.992L47.9833 173.504L47.9905 173.589L48.0002 173.673L53.9614 172.992ZM54.0574 175.36L60.0553 175.518L60.0554 175.514L54.0574 175.36ZM53.5134 179.488V185.488H57.6483L59.1203 181.624L53.5134 179.488ZM52.3614 180.096L47.2884 176.892L47.2648 176.929L47.2417 176.967L52.3614 180.096ZM51.8814 181.632L45.934 180.839L45.921 180.937L45.9112 181.035L51.8814 181.632ZM51.7854 187.008H45.7854V193.008H51.7854V187.008ZM52.7134 187.008V193.008H58.9741L58.708 186.753L52.7134 187.008ZM52.7134 184.096L46.7273 183.688L46.7226 183.756L46.7196 183.824L52.7134 184.096ZM52.9374 182.08L51.9093 176.169L47.9037 176.865L47.0661 180.844L52.9374 182.08ZM56.2654 181.76L56.4721 187.756L56.5211 187.755L56.5701 187.752L56.2654 181.76ZM60.0414 181.76L59.7367 187.752L59.7891 187.755L59.8415 187.757L60.0414 181.76ZM63.4654 182.08L69.3117 180.731L68.4129 176.836L64.4722 176.165L63.4654 182.08ZM63.7534 184.448L57.7651 184.822L57.7693 184.89L57.775 184.957L63.7534 184.448ZM63.8814 187.808H57.8814V187.861L57.8823 187.913L63.8814 187.808ZM63.8814 191.424L69.8804 191.533L69.8804 191.531L63.8814 191.424ZM63.7214 194.56L57.7472 194.004L57.7407 194.073L57.7359 194.142L63.7214 194.56ZM63.4654 196.544L63.3454 202.543L68.0662 202.637L69.2678 198.071L63.4654 196.544ZM56.7774 196.256L57.1619 190.268L57.1361 190.267L57.1102 190.265L56.7774 196.256ZM45.8334 196.096L45.7411 190.097L45.6935 190.097L45.646 190.099L45.8334 196.096ZM41.8014 196.224L41.6079 190.227L41.5596 190.229L41.5114 190.231L41.8014 196.224ZM38.2814 196.384L38.0316 190.389L37.9693 190.392L37.9071 190.396L38.2814 196.384ZM36.0414 196.544L41.6593 194.437C41.6699 194.465 41.6608 194.447 41.6432 194.37C41.6257 194.293 41.6028 194.172 41.5818 193.998L35.6254 194.72L29.669 195.442C29.7957 196.488 30.023 197.583 30.4234 198.651L36.0414 196.544ZM35.6254 194.72L41.5818 193.998C41.5197 193.486 41.4793 192.945 41.4629 192.373L35.4654 192.544L29.4678 192.715C29.4941 193.636 29.5603 194.546 29.669 195.442L35.6254 194.72ZM35.4654 192.544L41.4629 192.373C41.4478 191.843 41.4648 191.409 41.4996 191.061L35.5294 190.464L29.5592 189.867C29.4659 190.799 29.4403 191.752 29.4678 192.715L35.4654 192.544ZM35.5294 190.464L41.48 191.232C41.5084 191.012 41.5342 190.864 41.5522 190.776C41.5715 190.681 41.5732 190.698 41.5415 190.793L35.8494 188.896L30.1573 186.999C29.8539 187.909 29.6862 188.863 29.5787 189.696L35.5294 190.464ZM35.8494 188.896L37.7467 194.588C38.9281 194.194 39.8457 193.562 40.4615 193.069L36.7134 188.384L32.9652 183.699C32.9772 183.689 33.0557 183.627 33.1986 183.542C33.3379 183.46 33.5921 183.324 33.952 183.204L35.8494 188.896ZM36.7134 188.384L40.4969 193.041C42.1024 191.736 42.8623 190.027 43.2515 188.894L37.5774 186.944L31.9033 184.994C31.8852 185.046 31.9173 184.934 32.0404 184.729C32.162 184.526 32.4338 184.13 32.9298 183.727L36.7134 188.384ZM37.5774 186.944L43.1953 189.051C43.8319 187.353 43.9614 185.491 43.9614 183.936H37.9614H31.9614C31.9614 184.416 31.9375 184.734 31.9137 184.92C31.8877 185.124 31.8755 185.061 31.9594 184.837L37.5774 186.944ZM37.9614 183.936H43.9614C43.9614 182.434 43.849 180.756 43.3835 179.22L37.6414 180.96L31.8992 182.7C31.8667 182.593 31.8894 182.628 31.9158 182.873C31.9408 183.107 31.9614 183.454 31.9614 183.936H37.9614ZM37.6414 180.96L43.43 179.381C43.1192 178.242 42.479 176.481 40.9673 175.07L36.8734 179.456L32.7795 183.842C32.3074 183.402 32.0646 182.986 31.9617 182.785C31.8567 182.579 31.8352 182.474 31.8528 182.539L37.6414 180.96ZM36.8734 179.456L40.9673 175.07C39.9033 174.077 38.4192 173.205 36.5504 172.985L35.8494 178.944L35.1483 184.903C34.0049 184.768 33.2034 184.238 32.7795 183.842L36.8734 179.456ZM35.8494 178.944L41.3642 176.58C41.3929 176.647 41.4103 176.697 41.4194 176.725C41.4285 176.753 41.4308 176.764 41.4286 176.755C41.4265 176.746 41.4207 176.721 41.413 176.678C41.4053 176.635 41.3963 176.578 41.387 176.504L35.4334 177.248L29.4797 177.992C29.6085 179.023 29.851 180.179 30.3345 181.308L35.8494 178.944ZM35.4334 177.248L41.3898 176.526C41.335 176.074 41.3054 175.59 41.3054 175.072H35.3054H29.3054C29.3054 176.047 29.3611 177.014 29.477 177.97L35.4334 177.248ZM35.3054 175.072L41.3029 175.243C41.3176 174.729 41.3608 174.268 41.4254 173.854L35.4974 172.928L29.5693 172.002C29.4206 172.953 29.3358 173.921 29.3078 174.901L35.3054 175.072ZM35.4974 172.928L41.4297 173.827C41.4413 173.75 41.4522 173.691 41.4613 173.648C41.4703 173.604 41.4766 173.58 41.4785 173.574C41.4804 173.567 41.4765 173.582 41.4644 173.615C41.4524 173.648 41.4302 173.705 41.3945 173.78L35.9774 171.2L30.5602 168.62C30.0098 169.776 29.7251 170.973 29.5651 172.029L35.4974 172.928ZM35.9774 171.2L35.4791 177.179C36.0033 177.223 36.6742 177.277 37.4892 177.341L37.9614 171.36L38.4336 165.379C37.6272 165.315 36.9755 165.262 36.4756 165.221L35.9774 171.2ZM37.9614 171.36L37.646 177.352C38.4185 177.392 39.2481 177.444 40.1358 177.505L40.5534 171.52L40.971 165.535C40.0239 165.468 39.1256 165.413 38.2767 165.368L37.9614 171.36ZM40.5534 171.52L40.2809 177.514C41.2134 177.556 42.1135 177.599 42.981 177.641L43.2734 171.648L43.5657 165.655C42.684 165.612 41.7706 165.569 40.8258 165.526L40.5534 171.52ZM43.2734 171.648L43.1271 177.646C44.036 177.668 44.8546 177.68 45.5774 177.68V171.68V165.68C44.9774 165.68 44.2601 165.67 43.4197 165.65L43.2734 171.648ZM45.5774 171.68V177.68C46.626 177.68 47.7015 177.657 48.8032 177.611L48.5534 171.616L48.3036 165.621C47.3573 165.661 46.4487 165.68 45.5774 165.68V171.68ZM48.5534 171.616L48.92 177.605C50.0243 177.537 51.0574 177.457 52.016 177.364L51.4334 171.392L50.8508 165.42C50.06 165.497 49.1731 165.567 48.1867 165.627L48.5534 171.616ZM51.4334 171.392L52.0022 177.365C52.8854 177.281 53.566 177.22 54.0558 177.181L53.5774 171.2L53.0989 165.219C52.522 165.265 51.7734 165.332 50.8645 165.419L51.4334 171.392ZM53.5774 171.2L48.0625 173.563C48.0161 173.455 47.9879 173.372 47.9722 173.32C47.9641 173.294 47.9587 173.274 47.9554 173.261C47.9521 173.248 47.9506 173.241 47.9506 173.241C47.9505 173.241 47.9516 173.246 47.9537 173.258C47.9557 173.269 47.9585 173.286 47.9617 173.309C47.9682 173.354 47.976 173.419 47.9833 173.504L53.9614 172.992L59.9395 172.48C59.8469 171.4 59.6337 170.1 59.0923 168.836L53.5774 171.2ZM53.9614 172.992L48.0002 173.673C48.0507 174.115 48.0743 174.624 48.0593 175.206L54.0574 175.36L60.0554 175.514C60.0831 174.432 60.0427 173.362 59.9226 172.311L53.9614 172.992ZM54.0574 175.36L48.0595 175.202C48.0424 175.851 48.0002 176.455 47.9362 177.015L53.8974 177.696L59.8586 178.377C59.9653 177.444 60.0297 176.49 60.0553 175.518L54.0574 175.36ZM53.8974 177.696L47.9362 177.015C47.9108 177.237 47.8858 177.376 47.8706 177.447C47.8542 177.523 47.8581 177.479 47.9065 177.352L53.5134 179.488L59.1203 181.624C59.5403 180.522 59.7446 179.375 59.8586 178.377L53.8974 177.696ZM53.5134 179.488V173.488C51.1109 173.488 48.7307 174.608 47.2884 176.892L52.3614 180.096L57.4343 183.3C57.0616 183.89 56.4726 184.508 55.6419 184.946C54.8284 185.376 54.0587 185.488 53.5134 185.488V179.488ZM52.3614 180.096L47.2417 176.967C46.4254 178.303 46.0854 179.704 45.934 180.839L51.8814 181.632L57.8287 182.425C57.8351 182.377 57.8319 182.431 57.7923 182.558C57.7527 182.684 57.6637 182.926 57.4811 183.225L52.3614 180.096ZM51.8814 181.632L45.9112 181.035C45.825 181.897 45.7854 182.78 45.7854 183.68H51.7854H57.7854C57.7854 183.129 57.8097 182.647 57.8516 182.229L51.8814 181.632ZM51.7854 183.68H45.7854V187.008H51.7854H57.7854V183.68H51.7854ZM51.7854 187.008V193.008H52.7134V187.008V181.008H51.7854V187.008ZM52.7134 187.008L58.708 186.753C58.6723 185.914 58.673 185.12 58.7072 184.368L52.7134 184.096L46.7196 183.824C46.6684 184.949 46.6692 186.096 46.7188 187.263L52.7134 187.008ZM52.7134 184.096L58.6995 184.504C58.7277 184.09 58.7556 183.776 58.7807 183.551C58.8081 183.303 58.8228 183.249 58.8087 183.316L52.9374 182.08L47.0661 180.844C46.8872 181.694 46.7926 182.73 46.7273 183.688L52.7134 184.096ZM52.9374 182.08L53.9654 187.991C54.6195 187.878 55.4471 187.792 56.4721 187.756L56.2654 181.76L56.0586 175.764C54.609 175.814 53.218 175.941 51.9093 176.169L52.9374 182.08ZM56.2654 181.76L56.5701 187.752C57.6257 187.699 58.681 187.699 59.7367 187.752L60.0414 181.76L60.3461 175.768C58.8844 175.693 57.4223 175.693 55.9607 175.768L56.2654 181.76ZM60.0414 181.76L59.8415 187.757C60.9168 187.793 61.7806 187.88 62.4586 187.995L63.4654 182.08L64.4722 176.165C63.1448 175.939 61.7259 175.813 60.2413 175.763L60.0414 181.76ZM63.4654 182.08L57.619 183.429C57.6186 183.427 57.6255 183.457 57.637 183.526C57.6484 183.594 57.6622 183.689 57.6773 183.812C57.7077 184.063 57.7384 184.396 57.7651 184.822L63.7534 184.448L69.7417 184.074C69.6707 182.937 69.5502 181.764 69.3117 180.731L63.4654 182.08ZM63.7534 184.448L57.775 184.957C57.8431 185.757 57.8814 186.704 57.8814 187.808H63.8814H69.8814C69.8814 186.438 69.8343 185.144 69.7318 183.939L63.7534 184.448ZM63.8814 187.808L57.8823 187.913C57.9024 189.06 57.9024 190.194 57.8823 191.317L63.8814 191.424L69.8804 191.531C69.903 190.264 69.903 188.988 69.8805 187.703L63.8814 187.808ZM63.8814 191.424L57.8824 191.315C57.8631 192.377 57.8156 193.269 57.7472 194.004L63.7214 194.56L69.6956 195.116C69.7979 194.016 69.857 192.817 69.8804 191.533L63.8814 191.424ZM63.7214 194.56L57.7359 194.142C57.7093 194.524 57.682 194.796 57.6587 194.976C57.6473 195.064 57.6392 195.113 57.6363 195.129C57.6327 195.149 57.6396 195.106 57.6629 195.017L63.4654 196.544L69.2678 198.071C69.5285 197.08 69.64 195.935 69.7068 194.978L63.7214 194.56ZM63.4654 196.544L63.5854 190.545C61.5479 190.504 59.4071 190.413 57.1619 190.268L56.7774 196.256L56.3928 202.244C58.7983 202.398 61.1162 202.498 63.3454 202.543L63.4654 196.544ZM56.7774 196.256L57.1102 190.265C54.6906 190.131 52.2221 190.064 49.7054 190.064V196.064V202.064C52.0099 202.064 54.2562 202.125 56.4446 202.247L56.7774 196.256ZM49.7054 196.064V190.064C48.4755 190.064 47.1538 190.075 45.7411 190.097L45.8334 196.096L45.9257 202.095C47.2863 202.074 48.5459 202.064 49.7054 202.064V196.064ZM45.8334 196.096L45.646 190.099C44.2787 190.142 42.9327 190.184 41.6079 190.227L41.8014 196.224L41.9948 202.221C43.3154 202.178 44.6574 202.136 46.0208 202.093L45.8334 196.096ZM41.8014 196.224L41.5114 190.231C40.1985 190.295 39.039 190.347 38.0316 190.389L38.2814 196.384L38.5312 202.379C39.5718 202.335 40.7589 202.281 42.0914 202.217L41.8014 196.224ZM38.2814 196.384L37.9071 190.396C36.8762 190.46 36.0577 190.518 35.4982 190.569L36.0414 196.544L36.5846 202.519C36.9637 202.485 37.6385 202.436 38.6556 202.372L38.2814 196.384ZM67.5031 196.096L65.0442 201.569L65.0589 201.576L65.0736 201.582L67.5031 196.096ZM64.3351 193.504L69.4801 190.417V190.417L64.3351 193.504ZM65.3591 185.472L61.3774 180.984V180.984L65.3591 185.472ZM71.6951 183.68L71.7392 189.68L71.7517 189.68L71.6951 183.68ZM78.4791 183.616L78.5357 189.616L84.4791 189.56V183.616H78.4791ZM78.4791 181.92H84.4791V175.92H78.4791V181.92ZM76.7191 181.92V175.92H70.7191V181.92H76.7191ZM76.7191 182.784L76.9542 188.779L82.7191 188.553V182.784H76.7191ZM70.2871 183.04L70.0449 177.045V177.045L70.2871 183.04ZM63.9831 182.944L58.0587 183.893L58.8114 188.59L63.5556 188.929L63.9831 182.944ZM64.1431 173.28V167.28H59.2506L58.2659 172.072L64.1431 173.28ZM66.3831 173.312L66.2368 179.31L66.2403 179.31L66.3831 173.312ZM69.1991 173.408L68.9385 179.402L69.005 179.405L69.0715 179.407L69.1991 173.408ZM72.1431 173.472L72.2764 167.473L72.2764 167.473L72.1431 173.472ZM74.7031 173.536L80.2085 175.922L83.7315 167.792L74.8745 167.538L74.7031 173.536ZM74.2231 175.456L68.2364 175.057L68.2298 175.156L68.2265 175.256L74.2231 175.456ZM74.5111 177.312L68.8607 179.33L80.5003 177.673L74.5111 177.312ZM76.5271 173.632L73.6287 168.379L73.6287 168.379L76.5271 173.632ZM88.4951 173.888L85.6119 179.15L85.6398 179.165L85.6678 179.18L88.4951 173.888ZM91.5991 177.632L85.8645 179.397L85.8778 179.44L85.8918 179.483L91.5991 177.632ZM91.9191 180.192L85.9256 179.913L85.9224 179.981L85.9208 180.049L91.9191 180.192ZM91.7271 182.816L85.7735 182.072V182.072L91.7271 182.816ZM92.1751 187.904L87.3308 191.444L87.4081 191.55L87.4899 191.652L92.1751 187.904ZM93.5191 188.96L99.2495 187.182L98.3672 184.339L95.5696 183.321L93.5191 188.96ZM93.8391 191.296L87.8407 191.432L87.8422 191.5L87.8453 191.568L93.8391 191.296ZM93.3271 196.544L94.6569 202.395L98.024 201.63L99.054 198.334L93.3271 196.544ZM90.3831 196.96L90.0089 190.972L89.9468 190.976L89.8848 190.981L90.3831 196.96ZM84.0791 196.512L86.396 190.977L86.396 190.977L84.0791 196.512ZM82.8951 193.248L77.2651 191.174L77.2162 191.306L77.1736 191.441L82.8951 193.248ZM83.4071 191.936L88.9604 194.208L91.0672 189.058L86.0904 186.569L83.4071 191.936ZM82.5751 191.52L85.2584 186.153L79.4716 183.26L77.0218 189.248L82.5751 191.52ZM80.9751 194.208L76.2899 190.46L76.261 190.496L76.2326 190.533L80.9751 194.208ZM78.1911 196.288L75.7452 190.809L75.7267 190.817L75.7083 190.826L78.1911 196.288ZM76.7191 187.712H70.7191V193.712H76.7191V187.712ZM78.4791 187.712V193.712H84.4791V187.712H78.4791ZM78.4791 185.696H84.4791V179.696H78.4791V185.696ZM76.7191 185.696V179.696H70.7191V185.696H76.7191ZM73.5831 197.088V191.088C71.4359 191.088 70.3503 190.795 69.9327 190.61L67.5031 196.096L65.0736 201.582C67.6426 202.72 70.6103 203.088 73.5831 203.088V197.088ZM67.5031 196.096L69.962 190.623C69.6223 190.47 69.4597 190.352 69.4066 190.308C69.3617 190.272 69.4118 190.303 69.4801 190.417L64.3351 193.504L59.1902 196.591C60.6245 198.982 62.7846 200.554 65.0442 201.569L67.5031 196.096ZM64.3351 193.504L69.4801 190.417C69.3964 190.278 69.3751 190.192 69.3751 190.048H63.3751H57.3751C57.3751 192.379 57.9938 194.597 59.1902 196.591L64.3351 193.504ZM63.3751 190.048H69.3751C69.3751 189.931 69.3853 189.869 69.3889 189.851C69.3922 189.834 69.3908 189.849 69.376 189.883C69.3691 189.899 69.3608 189.915 69.3512 189.932C69.3418 189.948 69.3327 189.962 69.3253 189.972C69.3093 189.994 69.3089 189.989 69.3408 189.96L65.3591 185.472L61.3774 180.984C58.684 183.373 57.3751 186.575 57.3751 190.048H63.3751ZM65.3591 185.472L69.3408 189.96C69.1829 190.101 69.1767 190.028 69.568 189.918C69.9717 189.803 70.6644 189.688 71.7392 189.68L71.6951 183.68L71.651 177.68C68.1668 177.706 64.2963 178.394 61.3774 180.984L65.3591 185.472ZM71.6951 183.68L71.7517 189.68L78.5357 189.616L78.4791 183.616L78.4225 177.616L71.6385 177.68L71.6951 183.68ZM78.4791 183.616H84.4791V181.92H78.4791H72.4791V183.616H78.4791ZM78.4791 181.92V175.92H76.7191V181.92V187.92H78.4791V181.92ZM76.7191 181.92H70.7191V182.784H76.7191H82.7191V181.92H76.7191ZM76.7191 182.784L76.484 176.789C74.3057 176.874 72.1593 176.959 70.0449 177.045L70.2871 183.04L70.5294 189.035C72.6389 188.95 74.7805 188.865 76.9542 188.779L76.7191 182.784ZM70.2871 183.04L70.0449 177.045C68.1543 177.121 66.2765 177.093 64.4106 176.959L63.9831 182.944L63.5556 188.929C65.8711 189.094 68.196 189.129 70.5294 189.035L70.2871 183.04ZM63.9831 182.944L69.9075 181.995C69.482 179.339 69.5349 176.85 70.0203 174.488L64.1431 173.28L58.2659 172.072C57.4714 175.939 57.4176 179.893 58.0587 183.893L63.9831 182.944ZM64.1431 173.28V179.28C64.6977 179.28 65.3927 179.29 66.2368 179.31L66.3831 173.312L66.5294 167.314C65.6242 167.292 64.8259 167.28 64.1431 167.28V173.28ZM66.3831 173.312L66.2403 179.31C67.0935 179.331 67.9927 179.361 68.9385 179.402L69.1991 173.408L69.4597 167.414C68.4428 167.369 67.4647 167.336 66.5259 167.314L66.3831 173.312ZM69.1991 173.408L69.0715 179.407C70.0724 179.428 71.0518 179.449 72.0098 179.471L72.1431 173.472L72.2764 167.473C71.3145 167.452 70.3312 167.431 69.3268 167.409L69.1991 173.408ZM72.1431 173.472L72.0098 179.471C72.9605 179.492 73.8008 179.513 74.5318 179.534L74.7031 173.536L74.8745 167.538C74.1122 167.517 73.2458 167.495 72.2764 167.473L72.1431 173.472ZM74.7031 173.536L69.1978 171.15C68.6714 172.365 68.3286 173.675 68.2364 175.057L74.2231 175.456L80.2098 175.855C80.2068 175.901 80.2001 175.935 80.196 175.951C80.192 175.967 80.1928 175.958 80.2085 175.922L74.7031 173.536ZM74.2231 175.456L68.2265 175.256C68.1802 176.643 68.391 178.015 68.8607 179.33L74.5111 177.312L80.1616 175.294C80.1805 175.347 80.1974 175.41 80.2082 175.48C80.2189 175.549 80.2213 175.61 80.2198 175.656L74.2231 175.456ZM74.5111 177.312L80.5003 177.673C80.5142 177.442 80.5449 177.604 80.3572 177.947C80.2616 178.121 80.1261 178.31 79.9478 178.489C79.7698 178.667 79.5864 178.797 79.4256 178.885L76.5271 173.632L73.6287 168.379C70.1216 170.313 68.7162 173.727 68.522 176.951L74.5111 177.312ZM76.5271 173.632L79.4256 178.885C79.3766 178.913 79.5017 178.834 79.9162 178.753C80.3273 178.673 80.9327 178.608 81.7751 178.608V172.608V166.608C79.0469 166.608 76.1333 166.997 73.6287 168.379L76.5271 173.632ZM81.7751 172.608V178.608C84.2678 178.608 85.335 178.998 85.6119 179.15L88.4951 173.888L91.3783 168.626C88.5406 167.071 85.1277 166.608 81.7751 166.608V172.608ZM88.4951 173.888L85.6678 179.18C85.7499 179.224 85.793 179.256 85.8099 179.27C85.8259 179.282 85.8263 179.285 85.8201 179.277C85.8138 179.27 85.8131 179.267 85.8182 179.276C85.8237 179.287 85.8419 179.323 85.8645 179.397L91.5991 177.632L97.3338 175.867C96.3488 172.666 94.2542 170.162 91.3224 168.596L88.4951 173.888ZM91.5991 177.632L85.8918 179.483C85.9025 179.516 85.9383 179.641 85.9256 179.913L91.9191 180.192L97.9126 180.471C97.9853 178.909 97.8078 177.327 97.3065 175.781L91.5991 177.632ZM91.9191 180.192L85.9208 180.049C85.9041 180.753 85.8542 181.426 85.7735 182.072L91.7271 182.816L97.6808 183.56C97.8134 182.499 97.8915 181.423 97.9174 180.335L91.9191 180.192ZM91.7271 182.816L85.7735 182.072C85.6435 183.112 85.5671 184.134 85.5671 185.12H91.5671H97.5671C97.5671 184.74 97.5975 184.227 97.6808 183.56L91.7271 182.816ZM91.5671 185.12H85.5671C85.5671 186.719 85.753 189.285 87.3308 191.444L92.1751 187.904L97.0195 184.364C97.2466 184.675 97.3823 184.951 97.4605 185.142C97.5383 185.331 97.5705 185.464 97.581 185.512C97.5981 185.59 97.5671 185.486 97.5671 185.12H91.5671ZM92.1751 187.904L87.4899 191.652C88.3611 192.741 89.6506 193.938 91.4687 194.599L93.5191 188.96L95.5696 183.321C96.449 183.641 96.8425 184.134 96.8603 184.156L92.1751 187.904ZM93.5191 188.96L87.7887 190.738C87.769 190.675 87.781 190.693 87.7986 190.822C87.8159 190.949 87.8342 191.148 87.8407 191.432L93.8391 191.296L99.8376 191.16C99.8087 189.89 99.6625 188.512 99.2495 187.182L93.5191 188.96ZM93.8391 191.296L87.8453 191.568C87.8756 192.234 87.8605 192.9 87.7998 193.569L93.7751 194.112L99.7505 194.655C99.8604 193.446 99.888 192.235 99.8329 191.024L93.8391 191.296ZM93.7751 194.112L87.7998 193.569C87.7415 194.209 87.6542 194.582 87.6002 194.754L93.3271 196.544L99.054 198.334C99.4267 197.141 99.6381 195.892 99.7505 194.655L93.7751 194.112ZM93.3271 196.544L91.9974 190.693C91.3928 190.831 90.7321 190.926 90.0089 190.972L90.3831 196.96L90.7574 202.948C92.0821 202.866 93.3841 202.684 94.6569 202.395L93.3271 196.544ZM90.3831 196.96L89.8848 190.981C88.9405 191.059 88.2924 191.088 87.8871 191.088V197.088V203.088C88.7618 203.088 89.7778 203.031 90.8814 202.939L90.3831 196.96ZM87.8871 197.088V191.088C87.3027 191.088 86.8889 191.053 86.6165 191.011C86.3363 190.969 86.2902 190.933 86.396 190.977L84.0791 196.512L81.7623 202.047C83.732 202.871 85.9096 203.088 87.8871 203.088V197.088ZM84.0791 196.512L86.396 190.977C86.8388 191.163 87.5339 191.591 88.0743 192.421C88.6066 193.238 88.7031 194.005 88.7031 194.4H82.7031H76.7031C76.7031 195.819 77.029 197.45 78.0199 198.971C79.019 200.505 80.4021 201.477 81.7623 202.047L84.0791 196.512ZM82.7031 194.4H88.7031C88.7031 194.745 88.6423 194.974 88.6166 195.055L82.8951 193.248L77.1736 191.441C76.892 192.333 76.7031 193.329 76.7031 194.4H82.7031ZM82.8951 193.248L88.5252 195.322C88.6463 194.993 88.7907 194.623 88.9604 194.208L83.4071 191.936L77.8538 189.664C77.6395 190.188 77.4426 190.692 77.2651 191.174L82.8951 193.248ZM83.4071 191.936L86.0904 186.569L85.2584 186.153L82.5751 191.52L79.8918 196.887L80.7238 197.303L83.4071 191.936ZM82.5751 191.52L77.0218 189.248C76.8713 189.616 76.6418 190.02 76.2899 190.46L80.9751 194.208L85.6603 197.956C86.6738 196.689 87.511 195.301 88.1284 193.792L82.5751 191.52ZM80.9751 194.208L76.2326 190.533C76.2922 190.456 76.2271 190.594 75.7452 190.809L78.1911 196.288L80.637 201.767C82.5445 200.915 84.3354 199.667 85.7176 197.883L80.9751 194.208ZM78.1911 196.288L75.7083 190.826C75.5937 190.878 74.9966 191.088 73.5831 191.088V197.088V203.088C75.967 203.088 78.4418 202.765 80.6739 201.75L78.1911 196.288ZM76.7191 187.712V193.712H78.4791V187.712V181.712H76.7191V187.712ZM78.4791 187.712H84.4791V185.696H78.4791H72.4791V187.712H78.4791ZM78.4791 185.696V179.696H76.7191V185.696V191.696H78.4791V185.696ZM76.7191 185.696H70.7191V187.712H76.7191H82.7191V185.696H76.7191ZM105.641 196.576L104.164 202.391L104.175 202.394L104.185 202.397L105.641 196.576ZM102.377 195.104L98.5839 199.753L98.6504 199.807L98.7184 199.86L102.377 195.104ZM100.393 192.736L105.632 189.812L102.838 184.805L97.7094 187.369L100.393 192.736ZM99.5606 193.152L96.8773 187.785L91.6539 190.397L94.1235 195.689L99.5606 193.152ZM99.4966 196.096L95.8519 191.33L95.7817 191.384L95.7131 191.439L99.4966 196.096ZM98.2166 196.672L99.4404 202.546V202.546L98.2166 196.672ZM94.1206 196.544L88.4941 198.628L89.652 201.754L92.9183 202.422L94.1206 196.544ZM93.6406 194.336L87.6664 194.892L87.6736 194.969L87.6827 195.045L93.6406 194.336ZM93.5766 191.52L99.5707 191.786L99.571 191.781L93.5766 191.52ZM93.8966 188.96L91.9993 183.268L88.823 184.327L88.0561 187.586L93.8966 188.96ZM94.8246 188.352L99.0673 192.595H99.0673L94.8246 188.352ZM95.5606 186.784L101.372 188.278L101.377 188.259L101.381 188.239L95.5606 186.784ZM95.6246 180.672L89.7159 181.715L89.7338 181.816L89.7552 181.917L95.6246 180.672ZM95.1126 179.008L89.6902 181.577L89.7734 181.752L89.8677 181.922L95.1126 179.008ZM94.4726 178.144L90.7245 182.829L90.8321 182.915L90.9436 182.996L94.4726 178.144ZM93.8966 177.76L88.1545 179.5L88.9034 181.972L91.2133 183.127L93.8966 177.76ZM93.4486 175.328L87.4632 175.746L87.468 175.815L87.4744 175.884L93.4486 175.328ZM93.4806 172.608L87.5208 171.915L87.5136 171.977L87.5077 172.039L93.4806 172.608ZM94.0246 170.304L94.7395 164.347L90.2207 163.804L88.4805 168.01L94.0246 170.304ZM97.6086 170.624L97.2223 176.612L97.2705 176.615L97.3186 176.617L97.6086 170.624ZM106.473 170.592L106.841 176.581L106.887 176.578L106.933 176.574L106.473 170.592ZM109.897 170.304L115.467 168.076L113.799 163.905L109.328 164.331L109.897 170.304ZM110.249 171.872L104.28 172.489L104.291 172.591L104.305 172.692L110.249 171.872ZM110.377 173.6L113.262 178.861L116.377 177.153V173.6H110.377ZM108.553 174.88L112.428 179.46L112.479 179.418L112.528 179.374L108.553 174.88ZM107.017 176.352L102.594 172.298L98.4176 176.853L103.095 180.893L107.017 176.352ZM107.721 176.96L103.799 181.501L108.152 185.261L112.092 181.069L107.721 176.96ZM111.145 174.208L108.058 169.063L108.058 169.063L111.145 174.208ZM122.153 176.16L117.382 179.799L117.394 179.815L117.406 179.83L122.153 176.16ZM123.113 191.424L117.796 188.642L117.784 188.667L117.771 188.691L123.113 191.424ZM118.665 195.648L121.233 201.07L121.256 201.059L121.279 201.048L118.665 195.648ZM108.841 186.368H102.841V192.368H108.841V186.368ZM110.569 186.368V192.368H116.569V186.368H110.569ZM110.569 183.392H116.569V177.392H110.569V183.392ZM108.841 183.392V177.392H102.841V183.392H108.841ZM110.825 197.088V191.088C109.012 191.088 107.816 190.935 107.096 190.755L105.641 196.576L104.185 202.397C106.196 202.9 108.456 203.088 110.825 203.088V197.088ZM105.641 196.576L107.118 190.761C106.324 190.559 106.048 190.358 106.035 190.348L102.377 195.104L98.7184 199.86C100.37 201.13 102.27 201.91 104.164 202.391L105.641 196.576ZM102.377 195.104L106.169 190.455C105.948 190.274 105.776 190.071 105.632 189.812L100.393 192.736L95.1534 195.66C96.0329 197.236 97.1841 198.611 98.5839 199.753L102.377 195.104ZM100.393 192.736L97.7094 187.369L96.8773 187.785L99.5606 193.152L102.244 198.519L103.076 198.103L100.393 192.736ZM99.5606 193.152L94.1235 195.689C94.1397 195.724 94.1479 195.745 94.1506 195.752C94.1534 195.759 94.15 195.751 94.1435 195.728L99.9126 194.08L105.682 192.432C105.499 191.79 105.263 191.184 104.998 190.615L99.5606 193.152ZM99.9126 194.08L94.1435 195.728C94.0938 195.554 94.0406 195.286 94.0406 194.944H100.041H106.041C106.041 194.047 105.902 193.203 105.682 192.432L99.9126 194.08ZM100.041 194.944H94.0406C94.0406 194.441 94.1369 193.763 94.4791 193.038C94.8279 192.299 95.3307 191.728 95.8519 191.33L99.4966 196.096L103.141 200.862C105.112 199.355 106.041 197.142 106.041 194.944H100.041ZM99.4966 196.096L95.7131 191.439C96.2439 191.008 96.7432 190.85 96.9929 190.798L98.2166 196.672L99.4404 202.546C100.714 202.281 102.067 201.739 103.28 200.753L99.4966 196.096ZM98.2166 196.672L96.9929 190.798C96.8747 190.823 96.7727 190.832 96.6806 190.832V196.832V202.832C97.6125 202.832 98.5345 202.735 99.4404 202.546L98.2166 196.672ZM96.6806 196.832V190.832C96.4012 190.832 95.9586 190.796 95.323 190.666L94.1206 196.544L92.9183 202.422C94.1599 202.676 95.4241 202.832 96.6806 202.832V196.832ZM94.1206 196.544L99.7471 194.46C99.7571 194.487 99.7367 194.437 99.7037 194.285C99.6713 194.136 99.6336 193.921 99.5986 193.627L93.6406 194.336L87.6827 195.045C87.8218 196.214 88.0595 197.454 88.4941 198.628L94.1206 196.544ZM93.6406 194.336L99.6148 193.78C99.556 193.148 99.5397 192.484 99.5707 191.786L93.5766 191.52L87.5825 191.254C87.5282 192.476 87.5546 193.69 87.6664 194.892L93.6406 194.336ZM93.5766 191.52L99.571 191.781C99.6021 191.064 99.6746 190.6 99.7371 190.334L93.8966 188.96L88.0561 187.586C87.7773 188.771 87.6365 190.014 87.5823 191.259L93.5766 191.52ZM93.8966 188.96L95.794 194.652C97.1922 194.186 98.2721 193.39 99.0673 192.595L94.8246 188.352L90.582 184.109C90.7798 183.912 91.2411 183.521 91.9993 183.268L93.8966 188.96ZM94.8246 188.352L99.0673 192.595C100.524 191.138 101.101 189.332 101.372 188.278L95.5606 186.784L89.7497 185.29C89.7181 185.413 89.722 185.355 89.8012 185.187C89.8729 185.034 90.0963 184.595 90.582 184.109L94.8246 188.352ZM95.5606 186.784L101.381 188.239C101.75 186.763 101.849 185.102 101.849 183.52H95.8486H89.8486C89.8486 184.095 89.8287 184.538 89.7999 184.865C89.7699 185.204 89.7371 185.339 89.7398 185.329L95.5606 186.784ZM95.8486 183.52H101.849C101.849 182.142 101.768 180.72 101.494 179.427L95.6246 180.672L89.7552 181.917C89.7797 182.032 89.8486 182.509 89.8486 183.52H95.8486ZM95.6246 180.672L101.533 179.629C101.357 178.629 101.04 177.323 100.358 176.094L95.1126 179.008L89.8677 181.922C89.7896 181.781 89.7399 181.67 89.7113 181.6C89.6824 181.529 89.6688 181.486 89.666 181.477C89.6621 181.464 89.6841 181.535 89.7159 181.715L95.6246 180.672ZM95.1126 179.008L100.535 176.439C100.127 175.577 99.3743 174.29 98.0017 173.292L94.4726 178.144L90.9436 182.996C90.4674 182.65 90.1619 182.295 89.9873 182.059C89.812 181.823 89.7217 181.643 89.6902 181.577L95.1126 179.008ZM94.4726 178.144L98.2208 173.459C97.8061 173.127 97.2519 172.729 96.5799 172.393L93.8966 177.76L91.2133 183.127C91.0359 183.038 90.9102 182.959 90.8404 182.912C90.7687 182.865 90.7295 182.833 90.7245 182.829L94.4726 178.144ZM93.8966 177.76L99.6388 176.02C99.5673 175.784 99.4797 175.384 99.4228 174.772L93.4486 175.328L87.4744 175.884C87.5882 177.107 87.7993 178.328 88.1545 179.5L93.8966 177.76ZM93.4486 175.328L99.4341 174.91C99.3925 174.315 99.4002 173.738 99.4536 173.177L93.4806 172.608L87.5077 172.039C87.3904 173.27 87.3768 174.507 87.4632 175.746L93.4486 175.328ZM93.4806 172.608L99.4405 173.301C99.4714 173.035 99.5068 172.847 99.5361 172.723C99.5656 172.598 99.5829 172.564 99.5687 172.598L94.0246 170.304L88.4805 168.01C87.9496 169.293 87.6691 170.639 87.5208 171.915L93.4806 172.608ZM94.0246 170.304L93.3098 176.261C94.5073 176.405 95.8141 176.521 97.2223 176.612L97.6086 170.624L97.9949 164.636C96.7579 164.557 95.6753 164.459 94.7395 164.347L94.0246 170.304ZM97.6086 170.624L97.3186 176.617C98.7564 176.687 100.327 176.72 102.025 176.72V170.72V164.72C100.479 164.72 99.1062 164.689 97.8986 164.631L97.6086 170.624ZM102.025 170.72V176.72C103.71 176.72 105.317 176.674 106.841 176.581L106.473 170.592L106.104 164.603C104.855 164.68 103.497 164.72 102.025 164.72V170.72ZM106.473 170.592L106.933 176.574C108.339 176.466 109.519 176.367 110.465 176.277L109.897 170.304L109.328 164.331C108.482 164.412 107.38 164.504 106.012 164.61L106.473 170.592ZM109.897 170.304L104.326 172.532C104.3 172.467 104.283 172.417 104.273 172.384C104.263 172.351 104.259 172.332 104.258 172.33C104.258 172.328 104.261 172.34 104.265 172.367C104.269 172.395 104.275 172.435 104.28 172.489L110.249 171.872L116.217 171.255C116.114 170.264 115.903 169.164 115.467 168.076L109.897 170.304ZM110.249 171.872L104.305 172.692C104.359 173.083 104.377 173.383 104.377 173.6H110.377H116.377C116.377 172.751 116.309 171.898 116.192 171.052L110.249 171.872ZM110.377 173.6L107.492 168.339C106.447 168.912 105.472 169.595 104.577 170.386L108.553 174.88L112.528 179.374C112.743 179.184 112.984 179.013 113.262 178.861L110.377 173.6ZM108.553 174.88L104.677 170.3C103.938 170.925 103.242 171.591 102.594 172.298L107.017 176.352L111.44 180.406C111.73 180.089 112.058 179.774 112.428 179.46L108.553 174.88ZM107.017 176.352L103.095 180.893L103.799 181.501L107.721 176.96L111.642 172.419L110.938 171.811L107.017 176.352ZM107.721 176.96L112.092 181.069C112.709 180.413 113.416 179.842 114.232 179.353L111.145 174.208L108.058 169.063C106.313 170.11 104.738 171.373 103.349 172.851L107.721 176.96ZM111.145 174.208L114.232 179.353C114.607 179.127 114.91 179.056 115.241 179.056V173.056V167.056C112.67 167.056 110.242 167.753 108.058 169.063L111.145 174.208ZM115.241 173.056V179.056C116.746 179.056 117.134 179.473 117.382 179.799L122.153 176.16L126.923 172.521C124.014 168.708 119.794 167.056 115.241 167.056V173.056ZM122.153 176.16L117.406 179.83C117.919 180.493 118.553 181.905 118.553 184.8H124.553H130.553C130.553 180.314 129.587 175.966 126.899 172.49L122.153 176.16ZM124.553 184.8H118.553C118.553 186.647 118.21 187.852 117.796 188.642L123.113 191.424L128.429 194.206C129.935 191.327 130.553 188.116 130.553 184.8H124.553ZM123.113 191.424L117.771 188.691C117.483 189.255 117.017 189.78 116.05 190.248L118.665 195.648L121.279 201.048C124.366 199.554 126.865 197.263 128.454 194.157L123.113 191.424ZM118.665 195.648L116.096 190.226C115.139 190.679 113.489 191.088 110.825 191.088V197.088V203.088C114.56 203.088 118.136 202.537 121.233 201.07L118.665 195.648ZM108.841 186.368V192.368H110.569V186.368V180.368H108.841V186.368ZM110.569 186.368H116.569V183.392H110.569H104.569V186.368H110.569ZM110.569 183.392V177.392H108.841V183.392V189.392H110.569V183.392ZM108.841 183.392H102.841V186.368H108.841H114.841V183.392H108.841ZM136.751 196L134.165 201.414L134.181 201.422L134.197 201.429L136.751 196ZM134.543 192.384L140.542 192.236L128.885 190.387L134.543 192.384ZM134.287 194.432L128.34 195.225L128.355 195.339L128.375 195.451L134.287 194.432ZM134.767 196.288L134.949 202.285L143.097 202.038L140.44 194.332L134.767 196.288ZM129.007 196.48L129.229 202.476L129.007 196.48ZM124.719 196.544L118.81 197.582L119.665 202.45L124.606 202.543L124.719 196.544ZM124.239 191.84L118.24 191.922L118.241 191.963L118.242 192.004L124.239 191.84ZM124.591 186.912V180.912H119.415L118.656 186.033L124.591 186.912ZM129.071 187.488L127.515 193.283L127.565 193.296L127.616 193.309L129.071 187.488ZM132.911 189.248L129.371 194.092L133.936 197.428L137.537 193.069L132.911 189.248ZM133.519 188.512L138.145 192.333L142.218 187.403L137.038 183.652L133.519 188.512ZM131.567 187.424L129.098 192.892L129.203 192.94L129.309 192.983L131.567 187.424ZM129.455 186.624L127.522 192.304L127.589 192.327L127.656 192.348L129.455 186.624ZM126.703 185.28L123.315 190.232L123.345 190.252L123.375 190.272L126.703 185.28ZM124.783 183.168L119.526 186.06V186.06L124.783 183.168ZM124.975 176.384L119.735 173.462L119.714 173.5L119.693 173.539L124.975 176.384ZM127.887 173.728L130.571 179.095L130.605 179.077L130.639 179.06L127.887 173.728ZM139.247 173.792L136.564 179.159L136.611 179.182L136.659 179.205L139.247 173.792ZM141.519 177.6L135.521 177.739L147.144 179.689L141.519 177.6ZM141.807 175.52L135.835 176.098L135.846 176.206L135.86 176.313L141.807 175.52ZM141.327 173.44L141.243 167.441L132.889 167.558L135.669 175.437L141.327 173.44ZM145.231 173.376L145.349 179.375L145.406 179.374L145.462 179.372L145.231 173.376ZM148.239 173.28L148.382 179.278L148.454 179.277L148.525 179.273L148.239 173.28ZM150.831 173.216L156.701 171.971L155.692 167.216H150.831V173.216ZM151.311 177.792L157.311 177.714V177.714L151.311 177.792ZM150.991 182.816L150.909 188.815L156.213 188.888L156.935 183.633L150.991 182.816ZM143.951 180.96L147.102 175.854L142.31 172.897L139.055 177.492L143.951 180.96ZM143.407 181.728L138.511 178.26L134.876 183.392L140.173 186.782L143.407 181.728ZM144.879 182.56L142.3 187.977L142.407 188.028L142.516 188.075L144.879 182.56ZM146.095 183.072L143.811 188.62L143.82 188.624L146.095 183.072ZM149.295 184.8L145.715 189.615L145.755 189.645L145.796 189.674L149.295 184.8ZM151.151 187.008L145.708 189.531L145.719 189.557L145.732 189.582L151.151 187.008ZM150.927 193.92L145.793 190.815V190.815L150.927 193.92ZM148.751 195.968L151.382 201.361L151.408 201.348L151.435 201.335L148.751 195.968ZM145.903 196.8L145.159 190.846L145.089 190.855L145.02 190.865L145.903 196.8ZM143.023 197.024V191.024C140.638 191.024 139.583 190.701 139.306 190.571L136.751 196L134.197 201.429C136.821 202.664 139.947 203.024 143.023 203.024V197.024ZM136.751 196L139.337 190.586C139.54 190.682 139.939 190.95 140.248 191.457C140.539 191.934 140.543 192.282 140.542 192.236L134.543 192.384L128.545 192.532C128.587 194.214 128.979 196.028 130.007 197.711C131.052 199.423 132.534 200.635 134.165 201.414L136.751 196ZM134.543 192.384L128.885 190.387C128.374 191.837 128.108 193.482 128.34 195.225L134.287 194.432L140.235 193.639C140.297 194.102 140.201 194.382 140.201 194.381L134.543 192.384ZM134.287 194.432L128.375 195.451C128.538 196.401 128.781 197.333 129.095 198.244L134.767 196.288L140.44 194.332C140.327 194.006 140.25 193.7 140.2 193.413L134.287 194.432ZM134.767 196.288L134.586 190.291C132.463 190.355 130.529 190.42 128.785 190.484L129.007 196.48L129.229 202.476C130.941 202.412 132.848 202.349 134.949 202.285L134.767 196.288ZM129.007 196.48L128.785 190.484C127.117 190.546 125.81 190.564 124.833 190.545L124.719 196.544L124.606 202.543C125.891 202.567 127.441 202.542 129.229 202.476L129.007 196.48ZM124.719 196.544L130.629 195.506C130.401 194.208 130.272 192.932 130.237 191.676L124.239 191.84L118.242 192.004C118.293 193.863 118.483 195.723 118.81 197.582L124.719 196.544ZM124.239 191.84L130.239 191.758C130.222 190.558 130.312 189.239 130.527 187.791L124.591 186.912L118.656 186.033C118.359 188.041 118.214 190.007 118.24 191.922L124.239 191.84ZM124.591 186.912V192.912C125.65 192.912 126.619 193.042 127.515 193.283L129.071 187.488L130.628 181.693C128.665 181.166 126.647 180.912 124.591 180.912V186.912ZM129.071 187.488L127.616 193.309C128.382 193.5 128.941 193.778 129.371 194.092L132.911 189.248L136.451 184.404C134.663 183.097 132.662 182.201 130.527 181.667L129.071 187.488ZM132.911 189.248L137.537 193.069L138.145 192.333L133.519 188.512L128.894 184.691L128.286 185.427L132.911 189.248ZM133.519 188.512L137.038 183.652C136.043 182.932 134.971 182.331 133.826 181.865L131.567 187.424L129.309 192.983C129.529 193.072 129.758 193.196 130 193.372L133.519 188.512ZM131.567 187.424L134.037 181.956C133.141 181.551 132.212 181.201 131.254 180.9L129.455 186.624L127.656 192.348C128.192 192.516 128.671 192.699 129.098 192.892L131.567 187.424ZM129.455 186.624L131.389 180.944C130.85 180.761 130.406 180.537 130.032 180.288L126.703 185.28L123.375 190.272C124.665 191.132 126.056 191.805 127.522 192.304L129.455 186.624ZM126.703 185.28L130.091 180.328C130.074 180.316 130.064 180.308 130.059 180.304C130.055 180.3 130.054 180.299 130.055 180.3C130.056 180.301 130.056 180.301 130.054 180.299C130.053 180.297 130.048 180.29 130.041 180.276L124.783 183.168L119.526 186.06C120.452 187.744 121.736 189.151 123.315 190.232L126.703 185.28ZM124.783 183.168L130.041 180.276C130.104 180.392 130.116 180.456 130.11 180.43C130.103 180.399 130.079 180.275 130.079 180.032H124.079H118.079C118.079 182.013 118.455 184.112 119.526 186.06L124.783 183.168ZM124.079 180.032H130.079C130.079 179.651 130.155 179.42 130.258 179.229L124.975 176.384L119.693 173.539C118.601 175.567 118.079 177.768 118.079 180.032H124.079ZM124.975 176.384L130.216 179.306C130.199 179.336 130.187 179.343 130.211 179.321C130.24 179.294 130.342 179.209 130.571 179.095L127.887 173.728L125.204 168.361C122.985 169.471 121.033 171.134 119.735 173.462L124.975 176.384ZM127.887 173.728L130.639 179.06C130.838 178.957 131.51 178.704 133.007 178.704V172.704V166.704C130.324 166.704 127.583 167.133 125.136 168.396L127.887 173.728ZM133.007 172.704V178.704C135.333 178.704 136.327 179.04 136.564 179.159L139.247 173.792L141.931 168.425C139.266 167.093 136.101 166.704 133.007 166.704V172.704ZM139.247 173.792L136.659 179.205C136.444 179.102 136.056 178.831 135.767 178.346C135.501 177.901 135.518 177.61 135.521 177.739L141.519 177.6L147.518 177.461C147.478 175.755 147.095 173.912 146.072 172.198C145.025 170.444 143.523 169.186 141.836 168.379L139.247 173.792ZM141.519 177.6L147.144 179.689C147.684 178.234 147.997 176.541 147.755 174.727L141.807 175.52L135.86 176.313C135.789 175.779 135.909 175.472 135.895 175.511L141.519 177.6ZM141.807 175.52L147.779 174.942C147.662 173.728 147.378 172.557 146.985 171.443L141.327 173.44L135.669 175.437C135.788 175.774 135.825 175.989 135.835 176.098L141.807 175.52ZM141.327 173.44L141.412 179.439C142.934 179.418 144.247 179.396 145.349 179.375L145.231 173.376L145.114 167.377C144.04 167.398 142.75 167.419 141.243 167.441L141.327 173.44ZM145.231 173.376L145.462 179.372C146.549 179.33 147.521 179.299 148.382 179.278L148.239 173.28L148.097 167.282C147.165 167.304 146.133 167.337 145.001 167.38L145.231 173.376ZM148.239 173.28L148.525 179.273C149.333 179.235 150.102 179.216 150.831 179.216V173.216V167.216C149.897 167.216 148.938 167.24 147.954 167.287L148.239 173.28ZM150.831 173.216L144.962 174.461C145.169 175.436 145.295 176.566 145.312 177.87L151.311 177.792L157.311 177.714C157.285 175.733 157.091 173.812 156.701 171.971L150.831 173.216ZM151.311 177.792L145.312 177.87C145.329 179.199 145.243 180.574 145.047 181.999L150.991 182.816L156.935 183.633C157.209 181.644 157.336 179.67 157.311 177.714L151.311 177.792ZM150.991 182.816L151.074 176.817C149.843 176.8 149.083 176.673 148.673 176.558L147.055 182.336L145.438 188.114C147.161 188.596 149.025 188.79 150.909 188.815L150.991 182.816ZM147.055 182.336L148.673 176.558C148.18 176.42 147.658 176.197 147.102 175.854L143.951 180.96L140.801 186.066C142.25 186.961 143.798 187.655 145.438 188.114L147.055 182.336ZM143.951 180.96L139.055 177.492L138.511 178.26L143.407 181.728L148.304 185.196L148.848 184.428L143.951 180.96ZM143.407 181.728L140.173 186.782C140.863 187.223 141.575 187.632 142.3 187.977L144.879 182.56L147.459 177.143C147.288 177.061 147.019 176.916 146.642 176.674L143.407 181.728ZM144.879 182.56L142.516 188.075C142.984 188.276 143.416 188.458 143.811 188.62L146.095 183.072L148.38 177.524C148.049 177.388 147.671 177.228 147.243 177.045L144.879 182.56ZM146.095 183.072L143.82 188.624C144.81 189.03 145.399 189.38 145.715 189.615L149.295 184.8L152.876 179.985C151.527 178.983 149.983 178.181 148.371 177.52L146.095 183.072ZM149.295 184.8L145.796 189.674C145.833 189.701 145.822 189.699 145.79 189.661C145.776 189.643 145.76 189.621 145.744 189.597C145.729 189.573 145.716 189.55 145.708 189.531L151.151 187.008L156.595 184.485C155.728 182.614 154.412 181.087 152.795 179.926L149.295 184.8ZM151.151 187.008L145.732 189.582C145.685 189.484 145.693 189.464 145.713 189.568C145.733 189.674 145.759 189.879 145.759 190.208H151.759H157.759C157.759 188.337 157.469 186.324 156.571 184.434L151.151 187.008ZM151.759 190.208H145.759C145.759 190.641 145.72 190.888 145.697 190.992C145.674 191.091 145.68 191.002 145.793 190.815L150.927 193.92L156.062 197.025C157.383 194.839 157.759 192.393 157.759 190.208H151.759ZM150.927 193.92L145.793 190.815C145.776 190.843 145.792 190.81 145.855 190.751C145.92 190.69 145.997 190.637 146.068 190.601L148.751 195.968L151.435 201.335C153.417 200.343 154.963 198.841 156.062 197.025L150.927 193.92ZM148.751 195.968L146.121 190.575C145.875 190.695 145.568 190.795 145.159 190.846L145.903 196.8L146.648 202.754C148.287 202.549 149.879 202.094 151.382 201.361L148.751 195.968ZM145.903 196.8L145.02 190.865C144.279 190.976 143.616 191.024 143.023 191.024V197.024V203.024C144.265 203.024 145.522 202.923 146.787 202.735L145.903 196.8Z" fill="#4FFFB0" mask="url(#path-2-outside-1_54_174)"/>
</svg>
