<svg width="188" height="150" viewBox="0 0 188 150" fill="none" xmlns="http://www.w3.org/2000/svg">
<path d="M81.0234 149.995C74.2669 149.756 67.5105 149.315 60.7539 148.67V122.852H81.0234V149.995ZM117.401 123.023L127.717 123.236L127.913 138.425L128.043 148.529C121.057 149.198 114.071 149.668 107.085 149.937V122.81L117.401 123.023ZM94.7998 0C124.576 3.12266e-05 154.353 2.83464 184.13 8.50293C185.345 22.3583 186.257 34.3246 186.864 44.4014C187.472 53.8485 187.775 63.9261 187.775 74.6328C187.775 84.7097 187.472 95.1019 186.864 105.809C186.257 115.886 185.345 127.538 184.13 140.764C174.011 142.442 163.891 143.975 153.772 145.373C153.775 141.196 153.778 136.649 153.778 131.695C153.778 76.3902 153.69 72.1757 152.447 67.8975C148.621 54.7254 140.832 45.8952 130.032 42.4883C124.945 40.8833 115.451 41.0018 110.227 42.7344C107.902 43.5057 99.6469 48.1174 91.8828 52.9824C84.1188 57.8474 76.6588 62.2338 75.3057 62.7314C69.7937 64.7556 63.5029 63.0402 61.4434 58.9512C60.0346 56.1549 60.9895 49.6496 63.6543 43.8887C65.4793 39.9443 67.9373 36.6484 73.5527 30.6191C77.6592 26.2106 81.0194 22.4929 81.0234 22.3525C81.0234 22.2172 72.8763 22.1064 62.918 22.1064C45.6784 22.1064 44.7531 22.1801 43.5537 23.6533C40.7529 27.094 36.7083 35.1053 35.2119 40.1787C33.2588 46.8009 33.1449 57.7166 34.9531 65.0771C37.4 75.0402 44.1763 85.3788 52.791 92.291L55.3242 94.3242L33.1348 94.3965L33.5293 143.039C33.5353 143.782 33.541 144.515 33.5469 145.238C24.01 143.877 14.3466 142.387 4.55762 140.764C2.73458 128.168 1.5198 116.83 0.912109 106.753C0.304442 96.0463 6.07406e-06 85.6539 0 75.5771C9.25506e-06 66.1302 0.304446 56.0532 0.912109 45.3467C1.51979 34.6401 2.73461 22.3585 4.55762 8.50293C34.9419 2.83463 65.0232 0 94.7998 0ZM114.324 75.4062C117.418 74.1773 122.016 74.7241 124.459 76.6113C126.932 78.5216 128.18 82.9676 127.928 88.9785L127.717 94.0127L105.999 94.1865C86.3808 94.3449 84.4214 94.2484 85.7295 93.1855C88.6328 90.8275 111.86 76.3852 114.324 75.4062Z" fill="#4FFFB0"/>
</svg>
